<svg xmlns="http://www.w3.org/2000/svg" viewBox="0 0 397 397">
  <path d="M-8674-16707H2580v11254H-8674z" style="fill:none;fill-opacity:1;stroke-width:6.84484" transform="translate(306 589) scale(.03528)"/>
  <path d="M3304 13652c0-3278-3320-5230-3320-5230s-3320 1898-3320 5230a3320 3320 0 0 0 6640 0" style="fill:#d07a3a;fill-opacity:1;fill-rule:nonzero;stroke:none;stroke-width:4.02251" transform="matrix(.03528 0 0 -.03528 199 646)"/>
  <path d="M2913 13616a2929 2929 0 1 0-5858 0 2929 2929 0 0 0 5858 0" style="fill:#fff;fill-opacity:1;fill-rule:nonzero;stroke:none;stroke-width:5.18544" transform="matrix(.03528 0 0 -.03528 199 644)"/>
  <path d="M30004 21452s2111-2753-3327-6357c-5438-3603-13019-4795-14527-915-1509 3881-100 2732 5696 3396s9656 6691 10588 6034 1570-2158 1570-2158" style="fill:#f9a332;fill-opacity:1;fill-rule:nonzero;stroke:none" transform="matrix(.00717 0 0 -.00743 56 326)"/>
  <path d="M16831 12283c-1636 0-3024 386-3910 1240 392 185 702 373 961 529 296 179 535 324 684 324 16 0 31-1 44-5 76-19 155-101 243-250 255-431 603-667 983-667l46 1c403 19 774 312 993 782 131 279 300 448 520 518 81 25 172 38 271 38 367 0 855-173 1459-518l7-4a1741 1741 0 0 1 945-249c920 0 1354 420 1617 674 68 67 171 167 206 169 0 0 31-4 100-73-308-362-942-1063-1911-1063-416 0-893 129-1432 470a1309 1309 0 0 1-699 211c-626 0-1062-509-629-955 178-183 535-247 946-247 664 0 1468 167 1878 264 822 200 1660 467 2493 793 152-68 308-104 455-104a667 667 0 0 1 700 595c992 456 1963 994 2876 1599 2122 1406 3094 2683 3491 3717 2-163-10-340-43-530-53-311-157-625-309-941-529-886-1485-1903-3139-2999-3092-2050-6878-3319-9846-3319m6797 3343-31 66c-34 73-65 149-93 229h14c1058 0 1460 523 1948 1157 172 224 350 455 579 699 412 441 1043 467 1653 493 402 17 787 34 1079 178-711-706-1647 1-2208-886-637-1009-1203-1717-2407-1859-196-23-373-48-534-77m5639 3632c3 55 3 112 1 171-22 481-24 809 28 958 28 81 65 102 257 186 127 56 290 126 493 253 29-89 56-190 77-301-795-191-485-386-856-1267" style="fill:#cf793a;fill-opacity:1;fill-rule:nonzero;stroke:none" transform="matrix(.00717 0 0 -.00743 56 326)"/>
  <path d="M28264 23420c-55 0-191-31-490-241-348-244-800-647-1324-1114-1920-1711-4821-4296-8577-4727-1373-157-2497-213-3400-258-1395-69-2316-115-2558-489-232-357 15-1187 458-2324 363-935 1118-1590 2244-1947 2914-926 7931 325 11928 2974 2103 1394 3341 2863 3580 4248 187 1085-291 1738-312 1766-11 15-22 33-29 51-9 19-625 1447-1488 2056 0 0-9 5-32 5M16835 11535c-876 0-1671 109-2363 329-1270 403-2127 1153-2545 2229-535 1377-759 2224-413 2758 375 579 1284 624 2935 706 896 45 2012 101 3370 256 3605 413 6438 2938 8313 4609 1253 1117 1944 1732 2439 1383 921-648 1550-2024 1642-2234 106-152 583-917 386-2092-258-1546-1533-3088-3790-4583-1963-1301-4264-2325-6480-2884-1260-318-2437-477-3494-477" style="fill:#6d184e;fill-opacity:1;fill-rule:nonzero;stroke:none" transform="matrix(.00717 0 0 -.00743 56 326)"/>
  <path d="M11151 16624s-1380 212-1504-726 1398-567 1380-1292c-17-726-35-1682 1523-1027 1557 655 1982 1485 2478 645s1292-698 1664 98c372 797 1102 947 2534 128 766-438 1181 186 1701 810 452 542 982 1084 1890 930 1951-332 2035 611 3080 1726 1044 1115 3239-106 3168 1504-70 1611 98 1005 1067 1709 969 703 956 2350-943 2204-1898-146-6620-6957-18038-6709" style="fill:#48c75a;fill-opacity:1;fill-rule:nonzero;stroke:none" transform="matrix(.00717 0 0 -.00743 56 326)"/>
  <path d="M29082 20768c71 298 413 479 1123 1031 125 98 251 260 356 422-26-337-228-696-548-928a2967 2967 0 0 0-622-348c-130-57-231-111-309-177m-4977-4365c625 339 923 1056 1616 1850 873 1000 2500 361 3130 920a494 494 0 0 0-115-261c-184-200-607-218-1055-237-659-28-1407-60-1932-621a9465 9465 0 0 1-605-729c-345-449-598-779-1039-922" style="fill:#b6e9bd;fill-opacity:1;fill-rule:nonzero;stroke:none" transform="matrix(.00717 0 0 -.00743 56 326)"/>
  <path d="M11693 13563c-110 0-198 21-262 65-221 151-210 607-201 973 12 489-454 634-794 740-450 140-629 227-589 530 22 163 91 286 213 378 161 121 395 171 608 187 603-937 1525-1458 2602-1458 136 0 275 8 416 25 1335 183 2677 467 4016 852l154-212c136-187 268-369 401-538-215 62-412 93-592 93-141 0-272-19-393-57-329-105-586-351-764-733-154-331-396-537-645-549h-22c-233 0-459 164-639 468-148 251-304 389-493 437-47 12-95 17-143 17-261 0-535-165-893-382-310-187-695-420-1202-633-321-135-584-204-778-204m11844 2761c-45 0-91 1-139 4-93 501-77 1093 71 1711a29229 29229 0 0 1 4851 2823c721 540 1142 1270 1237 2092l36 7c104-616 0-1419-829-2176-1664-1523-3540-1930-4390-2797-512-523-567-1193-531-1644-93-13-195-20-306-20" style="fill:#539256;fill-opacity:1;fill-rule:nonzero;stroke:none" transform="matrix(.00717 0 0 -.00743 56 326)"/>
  <path d="M10837 16442c-248 0-572-39-777-194a535 535 0 0 1-213-377c-40-303 139-390 589-530 340-106 806-251 794-740-9-367-20-822 201-973 178-121 537-74 1040 138 507 213 892 446 1202 633 423 257 730 442 1036 365 189-48 345-186 493-437 185-313 419-478 661-468 249 12 491 218 645 549 178 382 435 628 764 733 499 159 1171-10 2054-515 532-304 820 2 1323 616 489 595 1096 1336 2202 1148 1392-237 1712 179 2293 935 170 221 363 471 605 729 525 561 1273 593 1932 621 448 19 871 37 1055 237 96 104 137 268 127 500-50 1134 9 1306 528 1533 159 69 356 155 622 348 439 318 655 872 502 1287-150 408-616 604-1310 550-465-35-1226-599-2190-1312-1369-1015-3244-2404-5828-3524-3050-1321-6429-1951-10040-1873l-26 2c-63 10-164 19-284 19m854-3284c-194 0-357 45-489 135-403 275-388 853-377 1318 4 157-124 223-509 343-382 119-959 298-870 970a933 933 0 0 0 372 649c474 356 1233 269 1350 253 8194-174 12833 3263 15606 5317 1095 811 1818 1347 2400 1392 1248 95 1619-538 1721-815 217-589-54-1327-644-1755-302-219-531-319-698-392-192-84-229-105-257-186-52-149-50-477-28-958 15-344-61-603-233-791-298-324-802-345-1337-368-610-26-1241-52-1653-493a8989 8989 0 0 1-579-699c-587-763-1051-1365-2683-1088-874 149-1355-438-1820-1005-461-562-984-1199-1838-710-768 439-1350 600-1730 480-220-70-390-239-520-518-219-470-590-763-993-782-398-20-764 217-1029 666-88 149-167 231-243 250-142 36-401-120-728-318-320-194-719-436-1254-661-371-156-682-234-937-234" style="fill:#6d184e;fill-opacity:1;fill-rule:nonzero;stroke:none" transform="matrix(.00717 0 0 -.00743 56 326)"/>
  <path d="M25935 26678c-246-98-457-254-631-452a32578 32578 0 0 0-6282-3348 32579 32579 0 0 0-6857-1912c-263 25-523-9-769-108-1123-449-1527-2079-902-3641 625-1561 1866-2169 3165-2013 2890 395 5473 1227 7585 2122 2147 810 4590 1990 6955 3698 1047 783 1526 2079 901 3641-625 1561-2042 2463-3165 2013" style="fill:#db2839;fill-opacity:1;fill-rule:nonzero;stroke:none" transform="matrix(.00717 0 0 -.00743 56 326)"/>
  <path d="M13262 15382c-1160 0-2088 680-2580 1911-37 93-71 188-101 282 77 27 156 53 237 79-57-261-67-530 79-752 145-220 407-346 802-383 58-5 114-8 169-8 819 0 1346 574 1737 1001 240 261 466 507 652 507h4c109-2 237-90 382-261 514-606 1186-935 1902-935a2249 2249 0 0 1 354 27c199-214 377-432 543-648a28174 28174 0 0 0-3807-797c-127-15-251-23-373-23m931 2137c-32 0-60-17-86-55-102-148-320-355-550-554a265 265 0 0 1 80-447c333-131 688-194 1052-194 129 0 260 8 390 24l12 1c253 35 312 373 88 494-573 308-827 731-986 731m9429 1039a5573 5573 0 0 0 1252 2008c92-7 186-12 280-12 82 0 165 3 246 12-211-242-395-478-550-690-135-185 12-418 208-418 37 0 76 8 115 27 561 269 1131 562 1705 883a29253 29253 0 0 0-3256-1810m3094 3226c12 42 22 83 31 124 958 502 1757 783 2392 947-9-50-19-100-30-149-904-54-1710-429-2393-922" style="fill:#a92142;fill-opacity:1;fill-rule:nonzero;stroke:none" transform="matrix(.00717 0 0 -.00743 56 326)"/>
  <path d="M12003 20771c-186 0-364-33-532-101-481-192-831-641-985-1264-160-647-91-1397 196-2113 544-1360 1620-2048 2953-1888 2502 342 5037 1051 7530 2107l8 3c2533 956 4857 2192 6907 3673 1072 802 1376 2042 832 3402-582 1455-1884 2308-2901 1900l-76 188 76-188c-211-84-398-218-555-398-11-12-23-24-37-33a32682 32682 0 0 0-6323-3370 32671 32671 0 0 0-6899-1922c-17-3-34-4-50-2-49 4-96 6-144 6m1267-5793c-1324 0-2412 786-2964 2164-318 794-394 1633-213 2362 186 752 622 1300 1227 1543 263 105 545 146 838 124 1320 212 3936 738 6788 1894a32274 32274 0 0 1 6222 3314c197 218 429 382 692 487 1225 491 2763-463 3428-2126 609-1520 247-2970-968-3878-2081-1503-4435-2756-7000-3724-2525-1069-5094-1788-7634-2135-141-17-280-25-416-25" style="fill:#6d184e;fill-opacity:1;fill-rule:nonzero;stroke:none" transform="matrix(.00717 0 0 -.00743 56 326)"/>
  <path d="M10868 19155s-1363-549-1699-1487c-200-557 375-246 1249 65 597 212 1335 425 2061 360 662-59 917 139 1101 338 313 338 426 675 1997-250 2496-1469 2726-3912 4425-3956 681-18 1072 202 1337 421 397 328 511 657 893 190 638-779 1846-637 1182 770s-243 4505 2766 6222 4620 1345 4762 1593c141 248-531 1522-2673 1558-2142 35-7523-5435-17401-5824" style="fill:#fcaf15;fill-opacity:1;fill-rule:nonzero;stroke:none" transform="matrix(.00717 0 0 -.00743 56 326)"/>
  <path d="m20074 14427-67 1c-782 20-1219 621-1823 1453-245 338-516 711-845 1085 424 158 799 445 1075 832 262 366 489 507 769 507 272 0 593-132 1045-317 286-117 610-250 986-371 246-79 487-118 717-118 408 0 783 123 1088 362-42-78-78-156-111-235a2231 2231 0 0 0-1074-269c-500 0-970 152-1388 303-418 152-783 303-1072 303-161 0-298-47-407-167-391-428-776-856-1011-988 699-952 1126-1753 2088-1778h70c650 0 1018 244 1266 489 249 244 377 489 546 489 85 0 180-62 306-216 228-278 527-438 789-466 116-347 96-595-4-752-197 29-438 159-628 390-111 136-265 294-466 306h-23c-195 0-338-137-488-283-246-238-580-560-1338-560M9350 17572l9 28c123 342 406 631 700 854 184 4 375 19 564 33a15070 15070 0 0 0 364 24c28 0 46-3 56-5 10-69-45-249-90-389-371-103-714-232-1010-344-207-78-454-171-593-201" style="fill:#d18126;fill-opacity:1;fill-rule:nonzero;stroke:none" transform="matrix(.00717 0 0 -.00743 56 326)"/>
  <path d="M12504 18091c1084-87 1052 528 1459 663-771 173-565-575-1459-663m-3356-680c172-266 1483 610 2868 688-1133 69-2281-511-2868-688" style="fill:#f8ce36;fill-opacity:1;fill-rule:nonzero;stroke:none" transform="matrix(.00717 0 0 -.00743 56 326)"/>
  <path d="M23101 15322c-26 0-53 1-80 4-29 87-67 180-114 280-232 492-316 1260 1 2020l82 46c-113-800-32-1574 241-2153 26-56 50-111 71-164-61-23-129-33-201-33" style="fill:#fed78a;fill-opacity:1;fill-rule:nonzero;stroke:none" transform="matrix(.00717 0 0 -.00743 56 326)"/>
  <path d="M23102 14567c-27 0-55 2-85 7 100 157 120 405 4 752a590 590 0 0 1 281 29c142-367 138-644-17-742-49-31-111-46-183-46m-194 3059a2757 2757 0 0 0 112 236c-11-63-21-126-30-190l-82-46" style="fill:#e8c093;fill-opacity:1;fill-rule:nonzero;stroke:none" transform="matrix(.00717 0 0 -.00743 56 326)"/>
  <path d="M23717 19727c-21 191-61 388-123 586-90 290-38 356-35 358 23 27 86 38 169 38 160 0 393-38 568-66l77-12a5920 5920 0 0 1-656-904" style="fill:#d18126;fill-opacity:1;fill-rule:nonzero;stroke:none" transform="matrix(.00717 0 0 -.00743 56 326)"/>
  <path d="M14128 18982c315 0 777-170 1551-626 1237-728 1940-1697 2505-2475 604-832 1041-1433 1823-1453 805-20 1152 314 1405 559 156 152 304 294 511 283 201-12 355-170 466-306 292-356 706-471 896-351 177 112 157 459-54 906-386 818-387 2024-3 3147 331 970 1095 2336 2852 3338 2167 1237 3635 1409 4341 1492 122 15 257 31 331 47-15 70-69 208-222 386-213 247-861 824-2265 847-651 13-1682-560-3109-1350-3023-1674-7587-4201-14243-4472-197-86-1279-587-1554-1354l-9-28c139 30 386 123 593 201 679 256 1608 606 2554 522 642-58 814 137 997 343 175 198 342 344 634 344m5949-4960-80 1c-983 25-1519 764-2141 1620-571 787-1219 1679-2382 2364-633 372-1064 559-1316 570-164 6-225-54-361-207-207-234-490-554-1336-479-854 76-1733-255-2375-497-566-213-877-331-1067-144-159 157-70 405-41 486 363 1012 1755 1583 1814 1607 22 8 45 13 68 14 6580 260 11105 2765 14100 4423 1482 821 2553 1413 3312 1401 1519-25 2421-666 2758-1258 80-141 199-408 88-603-92-160-279-182-650-226-679-80-2092-246-4188-1442-2787-1591-3355-4533-2683-5960 447-946 82-1309-96-1422-395-249-1021-57-1425 438-123 150-175 157-176 157-35-2-138-102-206-169-263-254-697-674-1617-674" style="fill:#6d184e;fill-opacity:1;fill-rule:nonzero;stroke:none" transform="matrix(.00717 0 0 -.00743 56 326)"/>
  <path d="M21575 16542s-618-1149-1531-1009c-693 106 465-29 766 810 347 969 944 464 765 199" style="fill:#f8ce36;fill-opacity:1;fill-rule:nonzero;stroke:none" transform="matrix(.00717 0 0 -.00743 56 326)"/>
  <path d="M11718 21235s-2443-133-2735-1487 982-1089 1965-1036c982 54-930-1832 770-1991 710-67 1184 340 1570 747 538 566 907 1132 1510 421 1035-1221 2655-1088 3452 27 796 1115 1460 398 3027-106 1566-505 2628 823 2124 2442-251 805 291 693 994 580 713-113 1592-227 1980 615 770 1673-877 1965 1088 2364 1965 398 2815 531 2496 1606-318 1075-1062 1872-3558 810s-4753-5709-14683-4992" style="fill:#48c75a;fill-opacity:1;fill-rule:nonzero;stroke:none" transform="matrix(.00717 0 0 -.00743 56 326)"/>
  <path d="M11325 17952c106 325 195 605 40 807-80 104-208 157-380 157l-48-1c-113-6-231-15-345-24a8428 8428 0 0 0-690-31c137 488 391 965-63 965l-39-1c-193-11-398-29-599-42 104 348 387 601 729 784 39-199 84-396 135-591a9128 9128 0 0 1 2607-846c-368-316-752-915-1347-1177m4076 185c-229 0-461 38-688 116a785 785 0 0 1-366 165 2562 2562 0 0 0-697 583l-9 10c289-22 582-33 878-33 904 0 1837 101 2786 298-67-70-135-153-203-249a2083 2083 0 0 0-1701-890m5381 675c-204 0-423 35-653 109-721 232-1251 509-1691 632 713 201 1430 453 2148 753l9 3 3 1 6 3 3 1 6 3 3 1 8 4h1l9 4h1l8 3 2 1 7 3 2 1 9 4 19 8 9 4h1l38 16 85 37h1l37 16 1 1 37 16h1l37 17h1l8 4h1l28 12 1 1 8 3 1 1 9 4 18 8 2 1 7 3 2 1 7 3 2 1 18 8 2 1 7 3 2 1a158 158 0 0 0 9 4l7 3 2 1 9 4 2 1 6 2 4 2 5 2 4 2 4 2 4 2 4 2 9 4 3 1 5 2 4 2 5 2 3 2a302 302 0 0 1 28 12l1 1 7 3c390 178 770 367 1138 566 285-1278-410-2318-1533-2318m3234 3053c-140 0-282 12-422 29 670 440 1288 919 1847 1433-18-218-78-472-215-768-254-552-719-694-1210-694m2985 3196c304 418 573 852 804 1301l-46 96c219 44 419 66 601 66 173 0 329-20 468-59 233-887-387-1104-1827-1404" style="fill:#539256;fill-opacity:1;fill-rule:nonzero;stroke:none" transform="matrix(.00717 0 0 -.00743 56 326)"/>
  <path d="M16546 17228h-20c359 157 681 413 928 759 328 459 635 625 984 625 77 0 156-8 237-22-198-104-393-281-590-557a1886 1886 0 0 0-1539-805m5509 679c789 364 1092 1360 857 2556-93 475 114 593 465 593l38-1c-62-27-117-66-163-119-182-210-113-525-45-744 234-749 109-1482-326-1913a1290 1290 0 0 0-826-372m3114 3052c-44 0-89 1-134 4 417 62 796 261 1029 767 816 1772-929 2082 1154 2504 1429 290 2301 447 2598 886 21-182-18-280-56-341-203-339-976-495-2146-731l-191-39c-667-135-965-265-1099-477-122-196-70-402-15-620 82-322 184-722-118-1380-204-442-561-573-1022-573" style="fill:#a4e3ad;fill-opacity:1;fill-rule:nonzero;stroke:none" transform="matrix(.00717 0 0 -.00743 56 326)"/>
  <path d="M10985 18916c172 0 300-53 380-157 156-203 64-486-42-814-97-299-207-638-88-820 72-110 241-178 502-202 716-67 1170 427 1570 863 305 332 592 647 962 638 233-4 457-136 683-404 455-536 1049-817 1674-791 579 25 1111 318 1459 805 702 982 1371 708 2297 329 279-114 595-244 957-361 614-197 1162-99 1542 277 435 431 560 1164 326 1913-68 219-137 534 45 744 217 250 630 184 1108 107 847-136 1520-186 1831 489 302 658 200 1058 118 1380-55 218-108 424 15 620 134 212 432 342 1099 477l191 39c1170 236 1943 392 2146 731 51 84 107 236 5 580-161 542-399 872-749 1037-536 252-1389 132-2536-356-591-251-1188-728-1879-1281-1079-862-2421-1936-4436-2720-2355-916-5119-1246-8448-1007-179-13-2290-184-2536-1327-67-309-46-529 63-653 215-247 817-201 1348-161a15808 15808 0 0 0 393 25m883-2405c-55 0-111 3-169 8-395 37-657 163-802 383-227 345-79 801 41 1169 46 144 116 358 105 435-13 3-39 7-84 4-109-6-219-14-336-23-657-50-1336-101-1684 298-200 230-251 559-154 1006 321 1488 2816 1640 2922 1646h25c7397-534 10413 1878 12616 3638 714 572 1331 1065 1974 1338 1275 543 2213 657 2867 349 462-218 769-627 964-1288 111-373 96-669-45-904-296-492-1093-653-2414-919l-191-39c-494-100-775-200-836-296-29-46-5-145 35-304 87-343 219-861-143-1649-465-1009-1547-835-2263-720-266 43-669 108-737 28-3-2-55-68 35-358 283-908 123-1776-428-2322-485-481-1197-617-1952-374-377 121-700 254-986 371-918 376-1298 532-1814-190a2288 2288 0 0 0-1772-973c-752-31-1462 300-1999 933-145 171-273 259-382 261h-4c-186 0-412-246-652-507-391-427-918-1001-1737-1001" style="fill:#6d184e;fill-opacity:1;fill-rule:nonzero;stroke:none" transform="matrix(.00717 0 0 -.00743 56 326)"/>
  <path d="M20586 20306c3276 1368 5888 3465 7220 6056a9463 9463 0 0 1-8436 5493c-5200 83-9525-4093-9616-9293-15-895 94-1763 311-2587 2947-1491 6735-1252 10521 331" style="fill:#f9a332;fill-opacity:1;fill-rule:nonzero;stroke:none" transform="matrix(.00717 0 0 -.00743 56 326)"/>
  <path d="M20649 31748h-1 1m-10 1-1 1 1-1m-5 1h-1 1m-15 2h-1 1m-29 5h-1 1m-5 0h-2 2m-5 1h-2 2m-15 2-2 1 2-1m-5 1h-3 3m-5 1h-3 3m-5 0-3 1 3-1m-5 1h-3 3m-5 1h-4 4m-6 1h-4 4m-5 0-5 1 5-1m-6 1-4 1 4-1m-5 1h-4 4m-6 1h-3 3m-5 0-3 1 3-1m-15 2-4 1 4-1m-6 1-4 1 4-1m-5 1h-4 4m-5 1h-4 4m-5 0-5 1 5-1m-6 1-4 1 4-1m-10 1-32 4 32-4m-32 4-5 1 5-1m-5 1-5 1 5-1m-16 2-5 1 5-1m-5 1h-6 6m-885 68h-5 5m-6 0-5 1 5-1m-5 1h-5 5m-6 0h-4 4m-5 0h-5 5m-6 0h-5 5m-5 0h-5 5m-5 0-33 1 33-1m-34 1h-5 5m-5 0-5 1 5-1m-6 1h-4 4m-5 0h-4 4m-6 0h-4 4m-5 0h-4 4m-6 0h-3 3m-5 0h-4 4m-6 0h-3 3m-5 0h-3 3m-5 0h-4 4m-6 0h-4 4m-5 0-5 1 5-1m-5 1h-15 15m-227 1h42-42" style="fill:#fff6af;fill-opacity:1;fill-rule:nonzero;stroke:none" transform="matrix(.00717 0 0 -.00743 56 326)"/>
  <path d="M10704 26519c1528 3128 4731 5294 8404 5336l35 1h75a8983 8983 0 0 0 152-1l5-1 1 1 4-1h50l5-1h6l33-1h27l5-1h6c297-9 590-32 879-68h6l5-1 11-1 5-1 5-1 32-4h6l4-1h1l5-1h5l1-1h5l4-1h2l4-1h6l3-1h3l3-1h2a42 42 0 0 1 5-1h5l4-1h1l5-1h5l2-1h4l2-1h5l3-1h5l2-1h6l2-1h3l2-1h6l2-1h5l2-1h5l4-1 24-4h1l9-1 5-1h5l1-1h4l5-1h1l4-1 5-1a9470 9470 0 0 0 6856-4806 10155 10155 0 0 1-6997 4173c-61-348-636-621-1336-621-689 0-1255 263-1333 602a10129 10129 0 0 1-4597-1873l7 13-42-39a10280 10280 0 0 1-2512-2676" style="fill:#fcd199;fill-opacity:1;fill-rule:nonzero;stroke:none" transform="matrix(.00717 0 0 -.00743 56 326)"/>
  <path d="m20586 20306 9 3-9-3m12 4 6 3-6-3m9 4 6 3-6-3m9 4 8 4-8-4m9 4 9 4-9-4m10 4 8 3-8-3m10 4 8 3-8-3m9 4 9 4-9-4m9 4 19 8-19-8m20 8 8 4-8-4m9 4 38 16-38-16m124 53 37 16-37-16m38 17 37 16-37-16m38 16 37 16-37-16m38 17 8 4-8-4m9 4 28 12-28-12m29 13 8 3-8-3m9 4 9 4-9-4m9 4 18 8-18-8m20 8 7 4-7-4m9 5 8 3-8-3m9 4 18 7-18-7m20 9 7 2-7-2m9 4 6 2-6-2m9 4 7 3-7-3m9 4 9 3-9-3m11 4 6 3-6-3m10 5 5 2-5-2m9 4 4 2-4-2m8 4 4 2-4-2m13 5 3 2-3-2m8 4 4 2-4-2m9 4 3 2-3-2m8 4h1-1m23 10 1 1-1-1m8 4" style="fill:#5b6d54;fill-opacity:1;fill-rule:nonzero;stroke:none" transform="matrix(.00717 0 0 -.00743 56 326)"/>
  <path d="M14521 18979c-725 0-1431 65-2110 199-335 83-663 182-983 301a1733 1733 0 0 0-1108 1363 9427 9427 0 0 0 2897 8353l34 26a9368 9368 0 0 1-1114-4362 3346 3346 0 0 1 2728-3312c657-125 1339-185 2038-185 1931 0 3999 463 6067 1327 1467 613 2801 1373 3946 2257-1345-1796-3344-3289-5738-4382l-7-3-1-1-22-10h-1l-5-2-3-2-5-2-4-2-5-2-3-2-9-3-4-2-4-2a205 205 0 0 1-8-4l-6-2-3-2-6-3-2-1-9-3-2-1-7-3-3-2-6-2-2-2-7-2-2-2-18-7-2-1-7-3-2-1-7-4h-2l-18-8-9-4-1-1a604 604 0 0 0-37-16h-1l-8-4-1-1-37-16h-1l-37-16-1-1-37-16h-1l-85-37-38-16h-1l-9-4-19-8-9-4-2-1-7-3-2-1-9-3-9-4-1-1-8-3-3-1-6-3-3-1-6-3-3-1-9-3c-2067-864-4134-1328-6065-1328" style="fill:#cf793a;fill-opacity:1;fill-rule:nonzero;stroke:none" transform="matrix(.00717 0 0 -.00743 56 326)"/>
  <path d="m13216 29195 42 39-7-13-35-26" style="fill:#d19982;fill-opacity:1;fill-rule:nonzero;stroke:none" transform="matrix(.00717 0 0 -.00743 56 326)"/>
  <path d="M14572 28239c-98-308-267-534-375-499-108 34-116 316-18 624s268 534 375 499c102-32 116-282 34-572l-16-52m1600-198c-55-319-192-565-304-546-111 19-157 297-102 616s192 565 304 546c104-19 153-264 111-563l-9-54m2065 65c45-321-10-597-122-613s-241 235-286 555 10 597 122 613c105 14 227-205 278-502l8-53m1728 662c171-275 232-550 137-610-96-59-316 117-487 392-172 274-233 549-137 609 89 56 289-95 457-346l29-45m1325 1098c229-228 352-482 272-562-79-80-333 42-563 270-229 228-352 482-272 562 75 75 304-26 524-232l39-38" style="fill:#fce69f;fill-opacity:1;fill-rule:nonzero;stroke:none" transform="matrix(.00717 0 0 -.00743 56 326)"/>
  <path d="M14785 23009a195 195 0 1 0 0 389 195 195 0 0 0 0-389m3141 1850a195 195 0 1 0 0 389 195 195 0 0 0 0-389" style="fill:#cf793a;fill-opacity:1;fill-rule:nonzero;stroke:none" transform="matrix(.00717 0 0 -.00743 56 326)"/>
  <path d="M18569 22832a195 195 0 1 0 0 389 195 195 0 0 0 0-389m1879 2384a195 195 0 1 0 0 389 195 195 0 0 0 0-389" style="fill:#e99335;fill-opacity:1;fill-rule:nonzero;stroke:none" transform="matrix(.00717 0 0 -.00743 56 326)"/>
  <path d="M22458 23622a195 195 0 1 0 0 389 195 195 0 0 0 0-389m261 2946a195 195 0 1 0 0 390 195 195 0 0 0 0-390m1400 1669a195 195 0 1 0-1 389 195 195 0 0 0 1-389" style="fill:#cf793a;fill-opacity:1;fill-rule:nonzero;stroke:none" transform="matrix(.00717 0 0 -.00743 56 326)"/>
  <path d="M14824 25031a195 195 0 1 0 0 389 195 195 0 0 0 0-389" style="fill:#e99335;fill-opacity:1;fill-rule:nonzero;stroke:none" transform="matrix(.00717 0 0 -.00743 56 326)"/>
  <path d="M26029 26403a195 195 0 1 0-1 389 195 195 0 0 0 1-389" style="fill:#cf793a;fill-opacity:1;fill-rule:nonzero;stroke:none" transform="matrix(.00717 0 0 -.00743 56 326)"/>
  <path d="M24766 24277a195 195 0 1 0 0 389 195 195 0 0 0 0-389" style="fill:#e99335;fill-opacity:1;fill-rule:nonzero;stroke:none" transform="matrix(.00717 0 0 -.00743 56 326)"/>
  <path d="M19215 31653c-5031 0-9170-4048-9258-9094-10-535 27-1073 109-1598 84-542 454-996 964-1186 2647-985 6014-730 9478 718 2942 1229 5226 2987 6605 5085a1500 1500 0 0 1 35 1591 9212 9212 0 0 1-7933 4484zm-4699-12878c-1303 0-2519 208-3628 620a1919 1919 0 0 0-1222 1504 9760 9760 0 0 0-114 1667 9589 9589 0 0 0 2954 6769 9597 9597 0 0 0 6867 2722 9657 9657 0 0 0 8122-4679 1907 1907 0 0 0-43-2022c-1424-2166-3771-3977-6788-5237-1747-731-3465-1168-5106-1301-353-29-700-43-1042-43" style="fill:#6d184e;fill-opacity:1;fill-rule:nonzero;stroke:none" transform="matrix(.00717 0 0 -.00743 56 326)"/>
  <path d="M25031 12802a1159 1159 0 1 0-2280 423c69 369 217 285 459 201 170-59 385-118 652-20 761 280 1286 25 1169-604" style="fill:#fcaf15;fill-opacity:1;fill-rule:nonzero;stroke:none" transform="matrix(.00717 0 0 -.00743 56 326)"/>
  <path d="M23678 11874h-1 1" style="fill:#fff6af;fill-opacity:1;fill-rule:nonzero;stroke:none" transform="matrix(.00717 0 0 -.00743 56 326)"/>
  <path d="M23678 11874h-1 1m775 800c28 71 50 145 65 223 54 290-31 500-210 615 39 4 78 6 115 6 435 0 690-256 609-709 26 144 16 268-21 371a1500 1500 0 0 0-558-506m578 130v1-1m1 2" style="fill:#fed78a;fill-opacity:1;fill-rule:nonzero;stroke:none" transform="matrix(.00717 0 0 -.00743 56 326)"/>
  <path d="m23680 11873-2 1 2-1m1277 683c33 78 58 160 74 246v2-2c-16-86-41-168-74-246" style="fill:#d18126;fill-opacity:1;fill-rule:nonzero;stroke:none" transform="matrix(.00717 0 0 -.00743 56 326)"/>
  <path d="M22751 13225v1-1" style="fill:#6d184e;fill-opacity:1;fill-rule:nonzero;stroke:none" transform="matrix(.00717 0 0 -.00743 56 326)"/>
  <path d="M23677 11874a1159 1159 0 0 0-926 1351v1c36 191 93 260 174 271 116-411 435-850 883-933 53-10 106-15 160-15 168 0 333 47 485 125a1161 1161 0 0 0-1024-723c78-34 161-61 248-77m1355 934v1-1" style="fill:#d18126;fill-opacity:1;fill-rule:nonzero;stroke:none" transform="matrix(.00717 0 0 -.00743 56 326)"/>
  <path d="M23892 11854c-70 0-141 6-212 19l-2 1h-1c-87 16-170 43-248 77 451 19 854 302 1024 723 228 117 426 303 558 506 38-103 47-227 21-371v-3l-1-1v-3a1160 1160 0 0 0-1131-948h-8" style="fill:#d29d78;fill-opacity:1;fill-rule:nonzero;stroke:none" transform="matrix(.00717 0 0 -.00743 56 326)"/>
  <path d="M22977 13291a951 951 0 0 1 125-820 951 951 0 0 1 614-399c252-46 506 8 717 153a951 951 0 0 1 399 614c23 123 26 290-88 386-148 124-459 121-812-9-363-133-651-30-842 38-36 13-82 29-113 37zm917-1640a1353 1353 0 0 0-1125 591 1353 1353 0 0 0-217 1019c26 140 74 310 221 395 152 87 312 30 454-21 167-59 340-121 565-39 505 186 947 163 1213-61 205-173 285-447 225-770-66-358-268-668-568-874a1352 1352 0 0 0-768-240" style="fill:#6d184e;fill-opacity:1;fill-rule:nonzero;stroke:none" transform="matrix(.00717 0 0 -.00743 56 326)"/>
  <path d="M26539 20787c81-38 177-28 255 17 320 188 1344 811 1516 1178 193 409-2350-930-1771-1195" style="fill:#e5525f;fill-opacity:1;fill-rule:nonzero;stroke:none" transform="matrix(.00717 0 0 -.00743 56 326)"/>
</svg>
